<?xml version="1.0" encoding="UTF-8"?>
<svg id="Layer_1" data-name="Layer 1" xmlns="http://www.w3.org/2000/svg" viewBox="0 0 204.57 204.57">
  <defs>
    <style>
      .cls-1 {
        fill: #fff;
        stroke: #fff;
        stroke-miterlimit: 10;
        stroke-width: 2.29px;
      }
    </style>
  </defs>
  <path class="cls-1" d="m6.74,6.74C-.72,14.21-.72,26.31,6.74,33.77l68.52,68.52L6.74,170.8c-7.46,7.46-7.46,19.56,0,27.03,7.46,7.46,19.56,7.46,27.03,0l68.52-68.52,68.52,68.52c7.46,7.46,19.56,7.46,27.03,0,7.46-7.46,7.46-19.56,0-27.03l-68.52-68.52,68.52-68.52c7.46-7.46,7.46-19.56,0-27.03-7.46-7.46-19.56-7.46-27.03,0l-68.52,68.52L33.77,6.74C26.31-.72,14.21-.72,6.74,6.74Z"/>
</svg>